<?xml version="1.0" encoding="UTF-8"?>
<!-- Generator: Adobe Illustrator 16.0.0, SVG Export Plug-In . SVG Version: 6.00 Build 0)  -->
<!DOCTYPE svg PUBLIC "-//W3C//DTD SVG 1.1//EN" "http://www.w3.org/Graphics/SVG/1.1/DTD/svg11.dtd">
<svg version="1.1" id="Layer_1" xmlns="http://www.w3.org/2000/svg" xmlns:xlink="http://www.w3.org/1999/xlink" x="0px" y="0px" width="1000px" height="116.116px" viewBox="-194 337.942 1000 116.116" enable-background="new -194 337.942 1000 116.116" xml:space="preserve">
<g>
	<g>
		<path d="M-127.473,394.341c-7.159,3.492-15.541,4.541-23.572,4.541c-6.461,0-13.97-0.524-20.43-2.446    c-3.318-0.872-5.937-2.269-9.08-4.189l-1.747,4.54h-10.826v-18.51h12.747c0.874,3.144,1.921,4.366,4.541,6.286    c6.285,4.715,14.143,5.588,21.826,5.588c4.017,0,16.763,0,16.763-6.636c0-4.365-5.588-4.889-8.731-5.238    c-6.46-0.523-12.747-0.873-19.207-1.396c-6.46-0.524-14.144-1.397-20.081-4.191c-5.588-2.619-8.73-8.032-8.73-13.969    c0-17.46,20.779-20.604,34.224-20.604c9.081,0,20.779,1.048,28.112,6.811l1.747-4.715h10.652v17.112h-12.398    c-0.873-2.794-1.92-4.016-4.54-5.587c-5.588-3.667-14.667-4.715-21.303-4.715c-4.016,0-16.239-0.174-16.239,5.937    c0,5.588,7.334,5.239,11.001,5.588l19.207,1.746c11,0.874,27.414,2.096,27.414,16.938    C-116.123,384.738-120.838,391.023-127.473,394.341"/>
		<path d="M26.011,396.786v-9.08h-5.937c-3.667,0-7.159,0.174-7.159-4.715v-26.192c0-6.286,0.349-7.159,7.159-7.159h5.937v-9.08    h-47.844v9.08h6.287c7.334,0,7.159,1.397,7.159,8.033v5.936h-36.494v-5.936c0-1.922-0.349-4.89,1.048-6.636    c1.396-1.747,4.016-1.397,5.937-1.397h6.46v-9.08h-48.367v9.08h6.286c6.46,0,7.159,1.048,7.159,7.159v23.922    c0,6.286-0.524,6.984-7.159,6.984h-6.286v9.08h48.192v-9.08h-6.46c-1.746,0-4.889,0.35-5.937-1.397    c-1.396-1.571-1.047-5.413-1.047-7.334v-5.762h36.493v6.635c0,1.921,0.523,4.889-0.873,6.46c-1.397,1.747-4.191,1.397-6.286,1.397    h-6.286v9.08H26.011z"/>
		<path d="M141.604,393.119c-9.43,4.54-21.478,5.588-31.955,5.588c-10.127,0-22.35-1.049-31.954-5.588    c-9.604-4.714-15.366-13.619-15.366-24.445c0-11.874,6.46-20.604,16.937-25.493c9.429-4.016,20.43-5.064,30.382-5.064    c10.127,0,20.953,1.048,30.382,5.064c10.826,4.714,16.937,13.619,16.937,25.493C156.97,379.5,151.556,388.405,141.604,393.119     M109.824,347.371c-12.747,0-24.445,6.985-24.445,20.779c0,13.793,10.825,21.477,23.747,21.477    c13.096,0,24.445-7.159,24.445-21.129C133.746,355.053,122.92,347.371,109.824,347.371z"/>
		<path d="M323.898,349.466c-1.922,0-3.143,0-4.891,1.746c-1.745,2.096-4.016,6.286-5.412,8.905l-19.208,36.669h-22.35    l-14.493-29.335l-14.667,29.335h-22.7l-20.429-39.812c-3.667-6.985-4.017-7.508-11.874-7.508v-9.081h43.304v9.081h-4.017    c-1.746,0-5.587-0.175-5.587,2.27c0,1.047,0.873,2.968,1.048,3.841l14.667,28.985l14.493-28.985    c-3.144-6.81-4.016-6.111-11.001-6.111v-9.081h43.304v9.081h-4.889c-1.747,0-5.414-0.349-5.414,2.27    c0,1.396,1.747,4.714,2.27,5.937l13.096,26.715l14.493-28.288c0.873-1.222,1.048-2.27,1.048-3.841    c0-2.969-2.794-2.793-5.064-2.793h-5.413v-9.081h31.954v9.081H323.898z"/>
		<path d="M436.174,384.389c-7.683,11-22.352,14.318-34.924,14.318c-9.604,0-20.953-1.747-29.508-6.287    c-9.43-4.889-14.494-13.62-14.494-24.271c0-23.223,23.573-30.208,42.781-30.208c6.81,0,14.666,1.048,20.953,3.492    c1.92,0.873,4.016,2.096,5.936,3.318l1.049-4.715h11.001v20.43h-12.224c-1.397-2.793-2.271-4.715-4.54-6.985    c-4.54-4.714-11.35-6.635-17.812-6.635c-12.746,0-23.571,6.984-23.571,20.778c0,13.62,10.825,21.477,23.748,21.477    c6.81,0,13.619-2.444,18.684-7.508c2.618-2.619,3.316-4.54,4.189-7.857h12.747C439.664,378.276,438.792,381.071,436.174,384.389"/>
		<path d="M671.2,394.341c-6.811,3.492-15.54,4.541-23.224,4.541c-6.81,0-14.143-0.524-20.777-2.446    c-3.145-0.872-5.938-2.269-8.731-4.189l-1.922,4.54h-10.825v-18.51h12.747c0.873,3.144,1.921,4.366,4.54,6.286    c6.285,4.715,14.144,5.588,21.826,5.588c4.191,0,16.938,0,16.938-6.636c0-4.365-5.588-4.889-9.079-5.238    c-6.287-0.523-12.747-0.873-19.034-1.396c-6.459-0.524-14.492-1.397-20.429-4.191c-5.413-2.619-8.731-8.032-8.731-13.969    c0-17.46,20.953-20.604,34.225-20.604c9.43,0,20.779,1.048,28.287,6.811l1.397-4.715h10.825v17.112H667.01    c-1.223-2.794-1.921-4.016-4.54-5.587c-5.937-3.667-14.668-4.715-21.478-4.715c-3.667,0-16.239-0.174-16.239,5.937    c0,5.588,7.334,5.239,11.001,5.588l19.032,1.397c11.352,0.873,27.415,2.095,27.415,16.938    C682.549,384.738,677.661,391.023,671.2,394.341"/>
		<path d="M805.826,396.786v-23.049h-10.478c0,3.493,0.524,8.382-1.745,11.35c-2.27,2.619-5.937,2.444-9.081,2.444h-30.73v-15.017    h13.62c2.27,0,5.063-0.174,6.285,2.096c1.047,2.095,0.873,4.714,0.873,6.81h10.128v-26.89H774.57c0,6.985,0.872,8.905-6.46,8.905    h-14.318v-13.969h32.651c2.62,0,4.891,0.349,6.81,2.27c2.795,2.793,2.271,7.159,2.271,10.651H806v-22.001h-86.782v9.081h6.287    c6.459,0,7.158,0.873,7.158,7.159v23.922c0,1.746,0,4.19-1.047,5.586c-1.397,1.747-4.016,1.397-5.938,1.397h-6.285v9.08h86.433    V396.786z"/>
		<path d="M559.799,381.594l-25.844-41.208h-23.223H493.97v5.588c0,0,12.222,1.223,8.556,6.81l-17.635,27.24    c-1.397,2.445-3.668,5.937-6.287,7.159c-1.92,0.699-5.413,0.524-7.158,0.524v9.08h34.921v-9.08h-6.81    c-1.92,0-4.54,0.174-4.54-2.27c0-0.35,0-0.874,0.351-1.223c0.873-1.746,1.92-3.841,3.143-5.587h34.225    c0.522,0.698,4.015,5.763,4.015,6.984c0,2.096-2.794,1.921-4.191,1.921h-7.856v9.08h47.844v-9.08    C564.687,387.706,563.988,388.229,559.799,381.594 M503.398,370.42l12.397-19.382l11.874,19.382H503.398z"/>
	</g>
	<g>
		<path d="M179.844,437.47c-0.699-3.667-4.366-5.412-8.731-5.412c-7.858,0-9.429,5.063-9.429,8.555c0,3.493,1.571,8.558,9.429,8.558    c4.016,0,7.857-1.571,8.731-5.589h8.904c-1.047,7.334-8.206,10.477-17.985,10.477c-11,0-17.985-4.016-17.985-13.445    c0-9.428,6.811-13.443,17.985-13.443c7.334,0,16.589,1.571,17.811,10.301H179.844L179.844,437.47z"/>
		<path d="M203.591,427.866h8.207v25.318h-8.207V427.866z"/>
		<path d="M254.228,427.866h8.032v25.318h-8.905l-16.588-17.635l0,0v17.635h-8.033v-25.318h9.604l15.89,17.637l0,0V427.866z"/>
		<path d="M278.848,427.866h28.288v4.89h-20.081v5.238h19.032v4.54h-19.032v5.763h20.255v4.888h-28.462V427.866z"/>
		<path d="M352.884,427.866h12.048v25.318h-8.032V432.93l0,0l-9.604,20.255h-6.809l-9.604-20.255l0,0v20.255h-8.03v-25.318h12.047    l9.08,18.335L352.884,427.866z"/>
		<path d="M403.521,447.946h-13.968l-2.445,5.238h-8.906l13.271-25.318h9.952l13.271,25.318h-8.904L403.521,447.946z     M396.537,433.28l-4.715,10.127h9.428L396.537,433.28z"/>
		<path d="M448.57,435.2c-0.523-3.317-4.365-3.667-7.683-3.667s-5.587,1.223-5.587,2.968c0,1.397,1.396,2.096,3.491,2.446    l10.302,1.396c5.588,0.698,9.779,2.445,9.779,7.16c0,4.714-3.842,8.555-15.716,8.555c-7.334,0-16.938-0.698-17.112-8.729h9.256    c0,3.491,4.189,4.016,7.856,4.016c3.841,0,6.462-0.873,6.462-3.143c0-1.922-1.922-2.444-5.064-2.969l-7.508-0.873    c-5.238-0.698-10.303-1.921-10.303-7.159c0-5.587,5.588-8.031,15.016-8.031c6.287,0,15.541,0.873,16.066,8.031H448.57z"/>
	</g>
</g>
</svg>